# xmcd CD database file
# Copyright (C) 1993-1998 Ti Kan
# 
# Track frame offsets:
#     182
#     11512
#     19112
#     31547
#     43925
#     54145
#     68522
#     81200
#     95662
#     109967
#     125632
#     140925
#     154617
# 
# Disc length: 2209 seconds
# 
# Revision: 1
# Processed by: cddbd v1.4b41PL1 Copyright (c) Steve Scherf et al.
# Submitted via: DiscPlay 4.0.4
# 
DISCID=a5089f0d
DTITLE=Elmore James - Complete Fire and Enjoy Sessions Part 3
DYEAR=1900
DGENRE=
TTITLE0=Shake Your Moneymaker
TTITLE1=Mean Mistreatin' Mama   #1
TTITLE2=Mean Mistreatin' Mama #2
TTITLE3=Mean Mistreatin' Mama #3
TTITLE4=Sunnyland Train
TTITLE5=My Baby's Gone
TTITLE6=Find My Kind Of Woman
TTITLE7=Hand In Hand #1
TTITLE8=I've Got A Right To Love My Baby
TTITLE9=Everyday I Have The Blues
TTITLE10=It Hurts Me Too
TTITLE11=Talk To Me Baby
TTITLE12=Can't Stop Lovin' My Baby
EXTD=
EXTT0=
EXTT1=
EXTT2=
EXTT3=
EXTT4=
EXTT5=
EXTT6=
EXTT7=
EXTT8=
EXTT9=
EXTT10=
EXTT11=
EXTT12=
PLAYORDER=
